<svg version="1.0" xmlns="http://www.w3.org/2000/svg" width="256.000000pt" height="256.000000pt" viewBox="0 0 256.000000 256.000000" preserveAspectRatio="xMidYMid meet">

  <g transform="translate(0.000000,256.000000) scale(0.100000,-0.100000)" fill="#d07f7f" stroke="none">
    <path d="M29 2401 l-24 -19 -3 -824 c-1 -452 0 -833 3 -844 6 -28 40 -36 59
-15 14 15 16 58 16 294 l0 277 415 0 415 0 0 -420 0 -420 -415 0 -415 0 0 66
c0 72 -12 104 -38 104 -38 0 -42 -18 -42 -207 0 -191 8 -232 45 -247 9 -3 565
-6 1236 -6 l1220 0 24 25 c23 22 25 31 25 117 -1 151 6 148 -339 148 -260 0
-271 -1 -283 -20 -18 -28 -88 -28 -106 0 -12 19 -23 20 -257 20 l-245 0 0 250
0 250 591 0 591 0 29 29 c28 29 29 32 29 131 0 99 -1 102 -29 131 l-29 29
-596 0 c-456 0 -596 3 -596 12 0 30 -56 89 -107 114 -45 22 -62 26 -105 21
-28 -4 -61 -13 -74 -22 -13 -8 -26 -15 -29 -15 -3 0 -5 105 -5 234 0 200 -2
237 -16 250 -8 9 -19 16 -24 16 -5 0 -16 -7 -24 -16 -14 -13 -16 -51 -16 -255
l0 -239 -415 0 -415 0 0 410 0 410 415 0 414 0 3 -101 c3 -84 6 -104 21 -113
12 -8 22 -8 35 0 15 10 17 33 20 195 3 204 1 220 -30 249 -21 19 -34 20 -464
20 -420 0 -443 -1 -465 -19z m769 -58 l112 -6 0 -44 0 -43 -415 0 -415 0 0 50
0 50 303 0 c166 0 353 -3 415 -7z m657 -1253 c-53 -53 -87 -80 -102 -80 -22 0
-23 3 -23 80 l0 80 102 0 103 0 -80 -80z m244 -5 l-86 -85 -69 0 -69 0 85 85
85 85 70 0 70 0 -86 -85z m286 5 l-80 -80 -85 0 -85 0 80 80 80 80 85 0 85 0
-80 -80z m276 31 c-22 -26 -59 -65 -81 -85 -38 -34 -44 -36 -107 -36 l-68 0
85 85 85 85 63 0 64 0 -41 -49z m219 -31 l0 -80 -106 0 -107 0 49 52 c80 86
107 107 137 108 l27 0 0 -80z m-1230 -600 l0 -60 -130 0 -130 0 0 60 0 60 130
0 130 0 0 -60z" />
    <path d="M215 1085 c-25 -24 -25 -25 -25 -230 0 -129 4 -214 11 -227 22 -41
65 -48 294 -48 229 0 272 7 294 48 7 13 11 98 11 227 0 205 0 206 -25 230
l-24 25 -256 0 -256 0 -24 -25z m243 -216 l-193 -162 -3 149 c-1 81 0 154 2
161 4 10 49 13 197 13 l191 0 -194 -161z m259 -206 c-2 -2 -89 -2 -193 -1
l-189 3 190 159 190 159 3 -158 c1 -87 1 -160 -1 -162z" />
  </g>
</svg>