<svg version="1.0" xmlns="http://www.w3.org/2000/svg" width="32.000000pt" height="32.000000pt" viewBox="0 0 32.000000 32.000000" preserveAspectRatio="xMidYMid meet">

  <g transform="translate(0.000000,32.000000) scale(0.100000,-0.100000)" fill="#000000" stroke="none">
    <path d="M7 313 c-4 -3 -7 -67 -7 -140 l0 -134 33 -14 c68 -28 88 -29 94 -6 3
14 13 21 28 21 47 0 55 9 55 62 0 30 -4 47 -10 43 -6 -3 -10 -24 -10 -46 0
-37 -2 -39 -30 -39 l-30 0 0 114 c0 82 -4 116 -12 119 -7 3 6 6 30 6 l42 1 0
-39 c0 -22 5 -43 10 -46 6 -4 10 13 10 43 0 36 -4 52 -16 56 -21 8 -179 8
-187 -1z m81 -34 c21 -8 22 -13 22 -134 l0 -126 -22 7 c-73 22 -68 11 -68 149
l0 126 23 -7 c12 -4 32 -10 45 -15z" />
    <path d="M250 233 c0 -3 7 -15 17 -25 15 -17 14 -18 -35 -18 -29 0 -52 -4 -52
-10 0 -5 23 -10 52 -10 51 0 51 0 33 -20 -31 -34 -6 -36 27 -2 l32 32 -29 30
c-27 29 -45 38 -45 23z" />
  </g>
</svg>